<svg width="331" height="39" viewBox="0 0 331 39" fill="none" xmlns="http://www.w3.org/2000/svg">
<g clip-path="url(#clip0_1081_27)">
<path d="M64.4 38.9466H53.5267V15.3171C53.5267 14.9278 53.3645 14.5862 53.0408 14.294C52.7164 14.0018 52.4145 13.8557 52.1347 13.8557C51.3636 13.8557 50.8215 14.2009 50.5063 14.8921L37.4532 38.9469H27.1578L13.7101 14.7857C13.6398 14.4845 13.4912 14.2186 13.2634 13.9884C13.0356 13.7583 12.7947 13.5855 12.5412 13.47C12.287 13.355 12.0903 13.2972 11.9502 13.2972C11.6172 13.2972 11.32 13.4747 11.0572 13.8286C10.7945 14.1832 10.6633 14.5555 10.6633 14.9451V38.9466H0V9.60243C0 8.18504 0.341495 6.87804 1.02449 5.68215C1.70748 4.48626 2.56478 3.48049 3.59817 2.6652C4.63121 1.85026 5.72557 1.21642 6.88123 0.764764C8.0369 0.312744 9.04356 0.0869141 9.90157 0.0869141C12.3526 0.0869141 14.4059 0.720752 16.0606 1.98735C17.7153 3.2543 19.4442 5.42963 21.2476 8.5126L32.0161 28.1551L43.0997 8.45957C44.5352 5.73121 46.1025 3.65293 47.8008 2.22652C49.499 0.800117 51.6 0.0869141 54.1042 0.0869141C55.5749 0.0869141 56.9537 0.379122 58.2406 0.963898C59.5278 1.54867 60.635 2.33727 61.5629 3.32934C62.4907 4.32176 63.1955 5.41159 63.6771 6.59846C64.1587 7.78569 64.3996 8.93756 64.3996 10.0537V38.9459L64.4 38.9466Z" fill="#191919"/>
<path d="M112.542 39.0001H81.5508C79.397 39.0001 77.4229 38.3799 75.6281 37.1393C73.8333 35.8991 72.4238 34.3749 71.3997 32.5675C70.3752 30.7598 69.8633 29.0416 69.8633 27.411V11.4629C69.8633 9.81501 70.5067 8.16711 71.7939 6.5192C73.0808 4.87129 74.6128 3.52028 76.3902 2.46581C78.1672 1.41169 79.6864 0.884277 80.9469 0.884277H111.729V9.60217H84.3351C83.6521 9.60217 83.0087 9.77497 82.4045 10.1206C81.8006 10.4658 81.3016 10.9225 80.9073 11.4896C80.5134 12.0571 80.3163 12.6588 80.3163 13.297V15.5297H111.518V24.1415H80.5266V27.1981C80.5266 27.9424 80.9597 28.5982 81.8267 29.1649C82.6932 29.7324 83.5291 30.0156 84.3351 30.0156H112.543V38.9994L112.542 39.0001Z" fill="#191919"/>
<path d="M165.832 28.8198C165.832 30.5922 165.205 32.2581 163.95 33.8169C162.695 35.3765 161.198 36.6304 159.461 37.5778C157.723 38.5258 156.24 38.9998 155.011 38.9998H118.005V15.5305H128.878V29.6441H148.714C150.83 29.6441 152.409 29.046 153.45 27.8501C154.491 26.6542 155.011 25.1434 155.011 23.3184V15.5835C154.976 14.4497 154.709 13.4529 154.21 12.5933C153.711 11.734 152.966 11.0561 151.977 10.5597C150.988 10.0637 149.775 9.8155 148.34 9.8155H117.769V0.884766H154.374C156.529 0.884766 158.487 1.50526 160.247 2.74552C162.008 3.98614 163.379 5.47892 164.36 7.22423C165.341 8.9699 165.832 10.5247 165.832 11.8891V28.8202L165.832 28.8198Z" fill="#191919"/>
<path d="M282.217 38.6176V15.0545H318.141C318.97 15.0545 320.532 12.9293 320.532 11.9455C320.532 10.7641 318.925 8.83658 317.816 8.83658H282.217V0.490981L282.704 0H317.491C317.768 0 319.84 0.371573 320.272 0.473304C328.066 2.30339 331.339 11.6349 327.457 18.4441C332.933 23.8088 331.91 32.7359 325.429 36.7911C324.64 37.285 321.826 38.6183 321.067 38.6183H282.217V38.6176ZM320.092 23.8907H290.995V29.7814H320.092C320.178 29.7814 321.398 29.0786 321.569 28.8864C322.973 27.3074 322.051 24.3185 320.092 23.8903V23.8907Z" fill="#191919"/>
<path d="M269.863 0H278.316V28.636C278.316 33.5007 271.288 38.2731 266.787 38.6295C260.345 39.1396 249.493 39.1064 243.028 38.6317C238.173 38.2753 231.176 33.6183 231.176 28.3088V0H239.466L239.954 0.490981V27.3272C239.954 27.8456 241.933 29.8597 242.736 29.763C250.197 29.136 259.182 30.6641 266.457 29.7893C268.095 29.5924 269.863 28.0043 269.863 26.3452V0Z" fill="#191919"/>
<path d="M227.274 38.6176H218.496V23.8907H186.311V15.0545H218.496V0.490981L218.984 0H226.786L227.274 0.490981V38.6176Z" fill="#191919"/>
<path d="M177.24 38.6176H168.462V0.490981L168.95 0H176.752L177.24 0.490981V38.6176Z" fill="#191919"/>
<path d="M189.562 38.6176H180.784V0.490981L181.272 0H189.074L189.562 0.490981V38.6176Z" fill="#191919"/>
<path d="M291.013 5.49463H282.217V24.022H291.013V5.49463Z" fill="#191919"/>
</g>
<defs>
<clipPath id="clip0_1081_27">
<rect width="331" height="39" fill="white"/>
</clipPath>
</defs>
</svg>
