<svg width="512" height="512" viewBox="0 0 512 512" fill="none" xmlns="http://www.w3.org/2000/svg">
<rect width="512" height="512" fill="#4A306D"/>
<path d="M419 312.998H364.127V194.425C364.127 192.472 363.308 190.758 361.675 189.291C360.038 187.825 358.514 187.092 357.102 187.092C353.211 187.092 350.475 188.824 348.885 192.293L283.011 313H231.054L163.189 191.759C162.835 190.247 162.084 188.913 160.935 187.758C159.785 186.603 158.569 185.736 157.29 185.157C156.008 184.579 155.015 184.29 154.308 184.29C152.627 184.29 151.127 185.18 149.801 186.956C148.475 188.735 147.813 190.604 147.813 192.559V312.998H94V165.749C94 158.636 95.7234 152.078 99.1702 146.077C102.617 140.076 106.943 135.029 112.158 130.938C117.372 126.848 122.895 123.668 128.727 121.401C134.559 119.133 139.639 118 143.969 118C156.339 118 166.701 121.181 175.051 127.536C183.402 133.894 192.127 144.81 201.228 160.28L255.572 258.846L311.506 160.014C318.75 146.323 326.66 135.894 335.231 128.737C343.801 121.579 354.404 118 367.041 118C374.464 118 381.422 119.466 387.916 122.401C394.412 125.335 400 129.292 404.682 134.271C409.365 139.251 412.921 144.719 415.352 150.675C417.782 156.633 418.998 162.413 418.998 168.014V312.995L419 312.998Z" fill="#E8D7F1"/>
<path d="M157.088 394.537H146.406V371.323C146.406 370.94 146.246 370.605 145.929 370.318C145.61 370.03 145.313 369.887 145.038 369.887C144.281 369.887 143.748 370.226 143.439 370.905L130.615 394.537H120.501L107.289 370.801C107.22 370.505 107.074 370.243 106.851 370.017C106.627 369.791 106.39 369.622 106.141 369.508C105.891 369.395 105.698 369.338 105.56 369.338C105.233 369.338 104.941 369.513 104.683 369.86C104.425 370.209 104.296 370.575 104.296 370.957V394.537H93.8203V365.708C93.8203 364.316 94.1558 363.032 94.8268 361.857C95.4978 360.682 96.34 359.694 97.3552 358.893C98.3701 358.093 99.4452 357.47 100.581 357.026C101.716 356.582 102.705 356.36 103.548 356.36C105.956 356.36 107.973 356.983 109.599 358.227C111.224 359.472 112.923 361.609 114.694 364.638L125.273 383.935L136.162 364.586C137.572 361.905 139.112 359.864 140.781 358.462C142.449 357.061 144.513 356.36 146.973 356.36C148.418 356.36 149.773 356.647 151.037 357.222C152.301 357.796 153.389 358.571 154.301 359.546C155.212 360.521 155.905 361.591 156.378 362.757C156.851 363.924 157.088 365.055 157.088 366.152V394.536L157.088 394.537Z" fill="white"/>
<path d="M204.384 394.589H173.937C171.821 394.589 169.882 393.98 168.118 392.761C166.355 391.542 164.971 390.045 163.964 388.269C162.958 386.493 162.455 384.805 162.455 383.203V367.536C162.455 365.917 163.087 364.298 164.352 362.679C165.616 361.06 167.121 359.733 168.867 358.697C170.613 357.661 172.106 357.143 173.344 357.143H203.584V365.708H176.672C176.001 365.708 175.369 365.878 174.776 366.217C174.183 366.556 173.692 367.005 173.305 367.562C172.918 368.12 172.724 368.711 172.724 369.338V371.531H203.378V379.991H172.931V382.994C172.931 383.725 173.356 384.37 174.208 384.927C175.059 385.484 175.881 385.762 176.672 385.762H204.384V394.588L204.384 394.589Z" fill="white"/>
<path d="M256.738 384.588C256.738 386.329 256.122 387.966 254.889 389.497C253.656 391.029 252.186 392.261 250.478 393.192C248.772 394.123 247.314 394.589 246.107 394.589H209.752V371.532H220.434V385.398H239.921C242 385.398 243.551 384.81 244.573 383.635C245.596 382.46 246.107 380.976 246.107 379.183V371.584C246.073 370.471 245.81 369.491 245.32 368.647C244.83 367.803 244.099 367.137 243.127 366.649C242.155 366.162 240.963 365.918 239.553 365.918H209.52V357.144H245.482C247.598 357.144 249.522 357.754 251.251 358.972C252.981 360.191 254.328 361.657 255.292 363.372C256.256 365.087 256.738 366.615 256.738 367.955V384.588L256.738 384.588Z" fill="white"/>
<path d="M371.075 394.213V371.065H406.368C407.182 371.065 408.717 368.977 408.717 368.01C408.717 366.85 407.138 364.956 406.049 364.956H371.075V356.757L371.554 356.275H405.729C406.001 356.275 408.037 356.64 408.461 356.74C416.118 358.538 419.334 367.705 415.52 374.395C420.899 379.665 419.894 388.435 413.528 392.419C412.752 392.904 409.988 394.214 409.242 394.214H371.075V394.213ZM408.284 379.746H379.699V385.533H408.284C408.369 385.533 409.568 384.842 409.735 384.653C411.115 383.102 410.209 380.166 408.284 379.745V379.746Z" fill="white"/>
<path d="M358.939 356.275H367.243V384.407C367.243 389.187 360.338 393.875 355.917 394.225C349.588 394.726 338.927 394.694 332.576 394.227C327.806 393.877 320.932 389.302 320.932 384.086V356.275H329.076L329.555 356.757V383.122C329.555 383.631 331.499 385.61 332.288 385.515C339.618 384.899 348.445 386.4 355.593 385.54C357.201 385.347 358.939 383.787 358.939 382.157V356.275Z" fill="white"/>
<path d="M317.099 394.213H308.475V379.746H276.855V371.065H308.475V356.757L308.954 356.275H316.62L317.099 356.757V394.213Z" fill="white"/>
<path d="M267.944 394.213H259.32V356.757L259.799 356.275H267.465L267.944 356.757V394.213Z" fill="white"/>
<path d="M280.049 394.213H271.426V356.757L271.905 356.275H279.57L280.049 356.757V394.213Z" fill="white"/>
<path d="M379.717 361.672H371.075V379.874H379.717V361.672Z" fill="white"/>
</svg>
