<svg width="95" height="114" viewBox="0 0 95 114" fill="none" xmlns="http://www.w3.org/2000/svg">
<path d="M64.42 26.5137H56.8446C56.8446 21.4909 54.8493 16.6739 51.2977 13.1222C47.7461 9.57062 42.929 7.57534 37.9063 7.57534C32.8835 7.57534 28.0665 9.57062 24.5148 13.1222C20.9632 16.6739 18.9679 21.4909 18.9679 26.5137H11.3926C11.3926 19.4818 14.186 12.738 19.1583 7.76568C24.1305 2.7934 30.8744 0 37.9063 0C44.9381 0 51.682 2.7934 56.6543 7.76568C61.6266 12.738 64.42 19.4818 64.42 26.5137Z" fill="white"/>
<path d="M83.3568 53.0273C81.4 53.0344 79.4795 53.5569 77.7889 54.5424C76.7678 52.9227 75.3539 51.5874 73.6786 50.6603C72.0033 49.7333 70.1208 49.2446 68.2061 49.2396C66.2493 49.2467 64.3289 49.7692 62.6383 50.7547C61.2602 48.5864 59.1881 46.949 56.7598 46.1098C54.3316 45.2706 51.6906 45.279 49.2678 46.1338V26.5136C49.2678 23.5 48.0706 20.6098 45.9396 18.4788C43.8087 16.3478 40.9184 15.1506 37.9048 15.1506C34.8911 15.1506 32.0009 16.3478 29.8699 18.4788C27.7389 20.6098 26.5417 23.5 26.5417 26.5136V68.5568L18.0952 62.7995C16.159 61.3575 13.8053 60.5862 11.3911 60.6026C9.13732 60.5971 6.93282 61.2619 5.05786 62.5124C3.1829 63.763 1.72218 65.5429 0.861409 67.6258C0.000638796 69.7087 -0.221292 72.0005 0.223832 74.2099C0.668957 76.4192 1.76103 78.4463 3.3612 80.0334L33.6626 107.683C37.9525 111.523 43.5105 113.641 49.2678 113.63H68.2061C75.238 113.63 81.9819 110.837 86.9542 105.864C91.9264 100.892 94.7198 94.1482 94.7198 87.1163V64.3903C94.7198 61.3767 93.5227 58.4864 91.3917 56.3555C89.2607 54.2245 86.3705 53.0273 83.3568 53.0273ZM87.1445 87.1163C87.1445 92.1391 85.1492 96.9561 81.5976 100.508C78.0459 104.059 73.2289 106.055 68.2061 106.055H49.2678C45.4392 106.101 41.7242 104.755 38.8138 102.267L8.70182 74.617C8.00207 73.9115 7.60758 72.9593 7.60339 71.9657C7.60339 71.2622 7.79927 70.5727 8.16908 69.9744C8.53889 69.376 9.06801 68.8924 9.69717 68.5779C10.3263 68.2633 11.0306 68.1301 11.7312 68.1933C12.4318 68.2565 13.1009 68.5135 13.6637 68.9355L34.1171 82.9499V26.5136C34.1171 25.5091 34.5161 24.5457 35.2265 23.8354C35.9368 23.125 36.9002 22.726 37.9048 22.726C38.9093 22.726 39.8727 23.125 40.583 23.8354C41.2934 24.5457 41.6924 25.5091 41.6924 26.5136V68.178H49.2678V56.815C49.2678 55.8104 49.6668 54.847 50.3772 54.1367C51.0875 53.4264 52.0509 53.0273 53.0554 53.0273C54.06 53.0273 55.0234 53.4264 55.7337 54.1367C56.4441 54.847 56.8431 55.8104 56.8431 56.815V68.178H64.4185V60.6026C64.4185 59.5981 64.8175 58.6347 65.5278 57.9244C66.2382 57.214 67.2016 56.815 68.2061 56.815C69.2107 56.815 70.1741 57.214 70.8844 57.9244C71.5948 58.6347 71.9938 59.5981 71.9938 60.6026V68.178H79.5692V64.3903C79.5692 63.3858 79.9682 62.4224 80.6785 61.712C81.3889 61.0017 82.3523 60.6026 83.3568 60.6026C84.3614 60.6026 85.3248 61.0017 86.0351 61.712C86.7454 62.4224 87.1445 63.3858 87.1445 64.3903V87.1163Z" fill="white"/>
</svg>
